<svg xmlns="http://www.w3.org/2000/svg" xmlns:xlink="http://www.w3.org/1999/xlink" version="1.1" id="Layer_1" x="0px" y="0px" width="96px" height="96px" viewBox="0 0 96 96" enable-background="new 0 0 96 96" xml:space="preserve">
<path d="M29.084,61.168L8,82.256V76c0-2.208-1.792-4-4-4s-4,1.792-4,4v16c0,2.208,1.792,4,4,4h16c2.208,0,4-1.792,4-4s-1.792-4-4-4  h-6.428l21.172-21.172c1.564-1.564,1.564-4.092,0-5.656S30.648,59.607,29.084,61.168L29.084,61.168z"/>
<path d="M13.74,8H20c2.208,0,4-1.792,4-4s-1.792-4-4-4H4C1.792,0,0,1.792,0,4v16c0,2.208,1.792,4,4,4s4-1.792,4-4v-6.424  L29.088,34.66c0.78,0.784,1.804,1.172,2.828,1.172s2.048-0.388,2.828-1.172c1.564-1.56,1.564-4.092,0-5.656L13.74,8z"/>
<path d="M92,0H76c-2.208,0-4,1.792-4,4s1.792,4,4,4h6.256L61.248,29c-1.564,1.564-1.564,4.096,0,5.656  c0.779,0.784,1.804,1.172,2.828,1.172c1.023,0,2.052-0.388,2.828-1.172l21.088-21.084V20c0,2.208,1.792,4,4,4s4-1.792,4-4V4  C96,1.792,94.208,0,92,0z"/>
<path d="M92,72c-2.208,0-4,1.792-4,4v6.256L66.916,61.168c-1.568-1.561-4.092-1.561-5.656,0c-1.568,1.568-1.568,4.096,0,5.656  l21.172,21.172H76c-2.208,0-4,1.792-4,4s1.792,4,4,4h16c2.208,0,4-1.792,4-4v-16C96,73.792,94.208,72,92,72z"/>
</svg>